<?xml version="1.0" encoding="utf-8"?>
<!-- Generator: Adobe Illustrator 17.0.0, SVG Export Plug-In . SVG Version: 6.00 Build 0)  -->
<!DOCTYPE svg PUBLIC "-//W3C//DTD SVG 1.1//EN" "http://www.w3.org/Graphics/SVG/1.1/DTD/svg11.dtd">
<svg version="1.1" id="Capa_1" xmlns="http://www.w3.org/2000/svg" xmlns:xlink="http://www.w3.org/1999/xlink" x="0px" y="0px"
	 width="64px" height="64px" viewBox="0 0 64 64" enable-background="new 0 0 64 64" xml:space="preserve">
<g>
	<path d="M34.891,29.047l-0.895-12.029c-0.201-2.701-0.422-3.158-0.982-3.158s-0.781,0.457-0.982,3.158l-0.895,12.029
		c-0.72,0.561-1.191,1.427-1.191,2.411c0,1.148,0.638,2.136,1.571,2.662l0.472,5.229c0.223,2.459,0.496,2.875,1.025,2.875
		s0.803-0.415,1.025-2.875l0.472-5.229c0.933-0.526,1.571-1.515,1.571-2.662C36.082,30.475,35.611,29.609,34.891,29.047z
		 M33.014,17.297l0.834,11.223c-0.267-0.076-0.543-0.129-0.834-0.129s-0.567,0.054-0.834,0.129L33.014,17.297z M33.043,39.26
		c-0.01,0.108-0.02,0.21-0.029,0.308c-0.01-0.098-0.02-0.2-0.029-0.308l-0.432-4.78c0.151,0.023,0.303,0.046,0.461,0.046
		s0.309-0.023,0.461-0.046L33.043,39.26z"/>
	<path d="M33.014,9.986c-11.564,0-20.974,9.409-20.974,20.973s9.409,20.973,20.974,20.973s20.974-9.409,20.974-20.973
		S44.578,9.986,33.014,9.986z M33.014,49.932c-10.462,0-18.974-8.511-18.974-18.973s8.512-18.973,18.974-18.973
		s18.974,8.511,18.974,18.973S43.476,49.932,33.014,49.932z"/>
	<path d="M33.014,3.765c-14.995,0-27.194,12.199-27.194,27.194s12.199,27.194,27.194,27.194s27.194-12.199,27.194-27.194
		S48.009,3.765,33.014,3.765z M33.014,56.153c-13.893,0-25.194-11.302-25.194-25.194S19.121,5.765,33.014,5.765
		s25.194,11.302,25.194,25.194S46.906,56.153,33.014,56.153z"/>
	<path d="M23.079,21.412l0.551-0.551c0.391-0.391,0.286-0.858-0.234-1.045l-1.31-0.47c-0.519-0.187-0.777,0.079-0.574,0.592
		l0.493,1.25C22.208,21.702,22.688,21.802,23.079,21.412z"/>
	<path d="M42.703,21.412c0.391,0.391,0.871,0.291,1.074-0.223l0.494-1.25c0.203-0.514-0.055-0.779-0.574-0.592l-1.311,0.47
		c-0.519,0.187-0.625,0.654-0.234,1.045L42.703,21.412z"/>
	<path d="M23.202,40.474c-0.391-0.391-0.871-0.29-1.074,0.223l-0.493,1.25c-0.203,0.514,0.055,0.779,0.574,0.592l1.309-0.47
		c0.52-0.186,0.625-0.654,0.234-1.045L23.202,40.474z"/>
	<path d="M43.899,40.697c-0.203-0.514-0.684-0.614-1.074-0.223l-0.55,0.55c-0.391,0.391-0.285,0.858,0.234,1.045l1.309,0.47
		c0.52,0.186,0.777-0.079,0.574-0.592L43.899,40.697z"/>
</g>
</svg>
