<?xml version="1.0" encoding="utf-8"?>
<!-- Generator: Adobe Illustrator 18.0.0, SVG Export Plug-In . SVG Version: 6.00 Build 0)  -->
<!DOCTYPE svg PUBLIC "-//W3C//DTD SVG 1.1//EN" "http://www.w3.org/Graphics/SVG/1.1/DTD/svg11.dtd">
<svg version="1.1" id="Capa_1" xmlns="http://www.w3.org/2000/svg" xmlns:xlink="http://www.w3.org/1999/xlink" x="0px" y="0px"
	 viewBox="0 0 64 64" enable-background="new 0 0 64 64" xml:space="preserve">
<g>
	<path fill="#FFFFFF" d="M34.9,29L34,17c-0.2-2.7-0.4-3.2-1-3.2s-0.8,0.5-1,3.2l-0.9,12c-0.7,0.6-1.2,1.4-1.2,2.4
		c0,1.1,0.6,2.1,1.6,2.7l0.5,5.2c0.2,2.5,0.5,2.9,1,2.9s0.8-0.4,1-2.9l0.5-5.2c0.9-0.5,1.6-1.5,1.6-2.7C36.1,30.5,35.6,29.6,34.9,29
		z M33,17.3l0.8,11.2c-0.3-0.1-0.5-0.1-0.8-0.1s-0.6,0.1-0.8,0.1L33,17.3z M33,39.3c0,0.1,0,0.2,0,0.3C33,39.5,33,39.4,33,39.3
		l-0.5-4.8c0.2,0,0.3,0,0.5,0s0.3,0,0.5,0L33,39.3z"/>
	<path fill="#FFFFFF" d="M33,10c-11.6,0-21,9.4-21,21s9.4,21,21,21s21-9.4,21-21S44.6,10,33,10z M33,49.9c-10.5,0-19-8.5-19-19
		s8.5-19,19-19s19,8.5,19,19S43.5,49.9,33,49.9z"/>
	<path fill="#FFFFFF" d="M33,3.8C18,3.8,5.8,16,5.8,31S18,58.2,33,58.2S60.2,46,60.2,31S48,3.8,33,3.8z M33,56.2
		C19.1,56.2,7.8,44.9,7.8,31S19.1,5.8,33,5.8S58.2,17.1,58.2,31S46.9,56.2,33,56.2z"/>
	<path fill="#FFFFFF" d="M23.1,21.4l0.6-0.6c0.4-0.4,0.3-0.9-0.2-1l-1.3-0.5c-0.5-0.2-0.8,0.1-0.6,0.6l0.5,1.3
		C22.2,21.7,22.7,21.8,23.1,21.4z"/>
	<path fill="#FFFFFF" d="M42.7,21.4c0.4,0.4,0.9,0.3,1.1-0.2l0.5-1.3c0.2-0.5-0.1-0.8-0.6-0.6l-1.3,0.5c-0.5,0.2-0.6,0.7-0.2,1
		L42.7,21.4z"/>
	<path fill="#FFFFFF" d="M23.2,40.5c-0.4-0.4-0.9-0.3-1.1,0.2l-0.5,1.3c-0.2,0.5,0.1,0.8,0.6,0.6l1.3-0.5c0.5-0.2,0.6-0.7,0.2-1
		L23.2,40.5z"/>
	<path fill="#FFFFFF" d="M43.9,40.7c-0.2-0.5-0.7-0.6-1.1-0.2L42.3,41c-0.4,0.4-0.3,0.9,0.2,1l1.3,0.5c0.5,0.2,0.8-0.1,0.6-0.6
		L43.9,40.7z"/>
</g>
</svg>
