<?xml version="1.0" encoding="utf-8"?>
<!-- Generator: Adobe Illustrator 18.0.0, SVG Export Plug-In . SVG Version: 6.00 Build 0)  -->
<!DOCTYPE svg PUBLIC "-//W3C//DTD SVG 1.1//EN" "http://www.w3.org/Graphics/SVG/1.1/DTD/svg11.dtd">
<svg version="1.1" id="Capa_1" xmlns="http://www.w3.org/2000/svg" xmlns:xlink="http://www.w3.org/1999/xlink" x="0px" y="0px"
	 viewBox="0 0 12 32" enable-background="new 0 0 12 32" xml:space="preserve">
<g>
	<path fill="#FFFFFF" d="M10,21.5V4c0-2.2-1.8-4-4-4C3.8,0,2,1.8,2,4v17.5c-1.2,1.1-2,2.7-2,4.5c0,3.3,2.7,6,6,6c3.3,0,6-2.7,6-6
		C12,24.2,11.2,22.6,10,21.5z M6,30c-2.2,0-4-1.8-4-4c0-1.5,0.8-2.8,2-3.5V4c0-1.1,0.9-2,2-2c1.1,0,2,0.9,2,2v18.5
		c1.2,0.7,2,2,2,3.5C10,28.2,8.2,30,6,30z"/>
	<path fill="#FFFFFF" d="M7,23.2c0-0.1,0-0.1,0-0.2v-4c0-0.5-0.4-1-1-1c-0.6,0-1,0.5-1,1v4c0,0.1,0,0.1,0,0.2c-1.2,0.4-2,1.5-2,2.8
		c0,1.7,1.3,3,3,3s3-1.3,3-3C9,24.7,8.2,23.6,7,23.2z"/>
</g>
</svg>
