<?xml version="1.0" encoding="utf-8"?>
<!-- Generator: Adobe Illustrator 18.0.0, SVG Export Plug-In . SVG Version: 6.00 Build 0)  -->
<!DOCTYPE svg PUBLIC "-//W3C//DTD SVG 1.1//EN" "http://www.w3.org/Graphics/SVG/1.1/DTD/svg11.dtd">
<svg version="1.1" id="Capa_1" xmlns="http://www.w3.org/2000/svg" xmlns:xlink="http://www.w3.org/1999/xlink" x="0px" y="0px"
	 viewBox="0 0 90 74" enable-background="new 0 0 90 74" xml:space="preserve">
<path fill="#FFFFFF" d="M8.2,18.8c8.7-7.5,15.6-13.4,34.4-2.9c9,5.1,16.2,7,22.3,7c10.6,0,17.4-5.9,23.4-11c2.1-1.8,2.4-5,0.6-7.2
	s-4.9-2.4-7-0.6C73,11.6,66.1,17.6,47.4,7C22.7-7,11.1,3,1.8,11c-2.1,1.8-2.4,5-0.6,7.2C3,20.3,6.1,20.6,8.2,18.8z M81.8,29.7
	c-8.7,7.5-15.6,13.4-34.4,2.9c-24.7-14-36.3-4-45.6,4c-2.1,1.8-2.4,5-0.6,7.2c1.8,2.2,4.9,2.4,7,0.6c8.7-7.5,15.6-13.4,34.4-2.9
	c9,5.1,16.2,7,22.3,7c10.6,0,17.4-5.9,23.4-11c2.1-1.8,2.4-5,0.6-7.2C87,28.1,83.9,27.9,81.8,29.7z M81.8,55.2
	c-8.7,7.5-15.6,13.4-34.4,2.9c-24.7-14-36.3-4-45.6,4c-2.1,1.8-2.4,5-0.6,7.2c1.8,2.2,4.9,2.4,7,0.6C17,62.4,23.9,56.4,42.6,67
	c9,5.1,16.2,7,22.3,7c10.6,0,17.4-5.9,23.4-11c2.1-1.8,2.4-5,0.6-7.2S83.9,53.4,81.8,55.2z"/>
</svg>
