<?xml version="1.0" encoding="utf-8"?>
<!-- Generator: Adobe Illustrator 18.0.0, SVG Export Plug-In . SVG Version: 6.00 Build 0)  -->
<!DOCTYPE svg PUBLIC "-//W3C//DTD SVG 1.1//EN" "http://www.w3.org/Graphics/SVG/1.1/DTD/svg11.dtd">
<svg version="1.1" id="Capa_1" xmlns="http://www.w3.org/2000/svg" xmlns:xlink="http://www.w3.org/1999/xlink" x="0px" y="0px"
	 viewBox="0 0 595.3 841.9" enable-background="new 0 0 595.3 841.9" xml:space="preserve">
<g id="_x38__7_">
	<g>
		<path fill="#FFFFFF" d="M85,399.7h382.7c70.5,0,127.6-57.1,127.6-127.6s-57.1-127.6-127.6-127.6v42.5c60,11.3,85,38.1,85,85
			s-49.2,85-109.9,85H85c-11.7,0-21.3,9.5-21.3,21.3C63.8,390.2,73.3,399.7,85,399.7z M191.3,314.6h255.1c11.7,0,21.3-9.5,21.3-21.3
			c0-11.7-9.5-21.3-21.3-21.3H191.3c-11.7,0-21.3,9.5-21.3,21.3C170.1,305.1,179.6,314.6,191.3,314.6z M297.7,527.2
			C297.7,527.2,297.7,527.2,297.7,527.2H127.6c-11.7,0-21.3,9.5-21.3,21.3s9.5,21.3,21.3,21.3h170.1c23.5,0,42.5,19,42.5,42.5
			c0,23.5-19,42.5-42.5,42.5v42.5c47,0,85-38.1,85-85C382.7,565.3,344.6,527.3,297.7,527.2z M467.7,442.2H21.3
			C9.5,442.2,0,451.7,0,463.5c0,11.7,9.5,21.3,21.3,21.3h421.6c60.7,0,109.9,38.1,109.9,85s-36.3,85-127.6,85c0,0,0,18.3,0,42.5
			h42.5c70.5,0,127.6-57.1,127.6-127.6S538.2,442.2,467.7,442.2z"/>
	</g>
</g>
</svg>
